<?xml version="1.0" standalone="no"?>
<!DOCTYPE svg PUBLIC "-//W3C//DTD SVG 20010904//EN"
 "http://www.w3.org/TR/2001/REC-SVG-20010904/DTD/svg10.dtd">
<svg version="1.0" xmlns="http://www.w3.org/2000/svg"
 width="150.000000pt" height="150.000000pt" viewBox="0 0 150.000000 150.000000"
 preserveAspectRatio="xMidYMid meet">

<g transform="translate(0.000000,150.000000) scale(0.100000,-0.100000)"
fill="#000000" stroke="none">
<path d="M653 813 c9 -2 23 -2 30 0 6 3 -1 5 -18 5 -16 0 -22 -2 -12 -5z"/>
<path d="M904 758 c-3 -4 4 -8 15 -8 12 0 21 4 21 8 0 5 -7 9 -15 9 -9 0 -18
-4 -21 -9z"/>
<path d="M155 686 c-136 -59 -98 -246 50 -246 45 0 105 27 105 47 0 11 -6 10
-26 -6 -26 -21 -67 -27 -99 -15 -25 10 -45 58 -45 109 0 38 5 52 29 76 16 16
39 29 51 29 30 0 80 -28 80 -45 0 -7 5 -17 10 -20 6 -4 10 12 10 41 0 40 -2
45 -15 34 -11 -9 -22 -9 -46 -1 -41 14 -67 13 -104 -3z"/>
<path d="M397 575 c-31 -63 -61 -115 -67 -115 -5 0 -10 -4 -10 -8 0 -4 18 -8
40 -7 22 0 40 3 40 8 0 4 -7 7 -15 7 -16 0 -20 18 -7 36 4 6 28 13 54 16 42 5
47 3 58 -20 9 -20 8 -27 -2 -33 -8 -5 11 -9 45 -9 50 0 56 2 45 14 -8 7 -36
61 -63 120 -26 58 -51 106 -54 106 -4 0 -32 -52 -64 -115z m42 -43 c-17 -2
-33 -1 -35 1 -3 3 3 21 13 42 l18 37 17 -38 17 -39 -30 -3z"/>
<path d="M620 683 c26 -10 30 -25 30 -120 0 -77 -3 -94 -17 -102 -15 -8 -11
-10 20 -11 35 0 37 1 23 16 -12 11 -16 36 -16 97 l1 82 57 -65 c31 -36 74 -83
94 -105 l37 -40 1 117 c0 101 2 118 18 127 13 8 8 10 -27 11 -39 0 -42 -2 -27
-13 14 -10 17 -25 14 -71 l-3 -59 -60 71 -59 72 -51 -1 c-27 0 -43 -3 -35 -6z"/>
<path d="M923 683 c15 -4 17 -18 17 -113 0 -77 -4 -110 -12 -114 -7 -3 31 -5
85 -3 98 2 99 2 128 35 23 26 29 41 29 80 0 91 -46 123 -177 121 -48 -1 -80
-3 -70 -6z m125 -9 c31 -9 52 -53 52 -112 0 -59 -28 -102 -66 -102 -24 0 -24
0 -24 110 0 61 3 110 8 110 4 0 17 -3 30 -6z"/>
<path d="M1167 682 c6 -4 30 -39 52 -77 44 -74 53 -129 26 -149 -12 -8 0 -11
52 -13 56 -1 65 1 51 11 -9 7 -17 29 -19 52 -2 33 5 53 39 106 22 36 47 68 54
71 7 3 -7 5 -32 5 -25 0 -37 -2 -27 -5 9 -2 17 -8 17 -12 0 -9 -58 -101 -64
-101 -12 0 -57 92 -52 105 4 12 -5 15 -52 15 -31 0 -52 -4 -45 -8z"/>
<path d="M470 344 l0 -35 -37 30 c-21 17 -41 31 -45 31 -12 0 -10 -98 2 -105
6 -4 10 8 10 29 0 20 3 36 7 36 4 0 24 -17 45 -37 l38 -37 0 62 c0 35 -4 62
-10 62 -5 0 -10 -16 -10 -36z"/>
<path d="M597 324 c-15 -31 -25 -59 -22 -63 4 -3 11 2 16 12 13 22 48 22 65 0
26 -37 24 -3 -3 51 l-29 57 -27 -57z m37 1 c3 -9 0 -15 -9 -15 -9 0 -12 6 -9
15 4 8 7 15 9 15 2 0 5 -7 9 -15z"/>
<path d="M770 321 c0 -34 4 -61 10 -61 6 0 10 24 10 54 0 30 -4 58 -10 61 -6
4 -10 -17 -10 -54z"/>
<path d="M898 374 c-5 -4 -8 -31 -8 -61 0 -52 1 -53 29 -53 17 0 33 5 36 10 3
6 -5 10 -19 10 -23 0 -25 4 -28 51 -2 28 -6 47 -10 43z"/>
<path d="M1052 368 c-19 -19 -14 -37 13 -50 35 -16 34 -42 -1 -34 -19 5 -25 3
-22 -6 7 -21 55 -22 67 -1 11 22 5 35 -27 52 -26 14 -19 35 9 26 23 -8 26 10
3 19 -22 8 -28 8 -42 -6z"/>
</g>
</svg>
